# xmcd CD database file generated by Grip 3.2.0
# 
# Track frame offsets:
#       150
#       23745
#       41568
#       63936
#       87612
#       111346
#       145154
#       159884
#       183932
#       208771
# 
# Disc length: 3035 seconds
# 
# Revision: 2
# Processed by: cddbd v1.5.2PL0 Copyright (c) Steve Scherf et al.
# Submitted via: Grip 3.2.0
# 
DISCID=840bd90a
DTITLE=Avishai Cohen - Continuo
DYEAR=2006
DGENRE=Jazz
TTITLE0=Nu Nu
TTITLE1=Elli
TTITLE2=One for Mark
TTITLE3=Ani Maamin
TTITLE4=Samuel
TTITLE5=Emotional Storm
TTITLE6=Calm
TTITLE7=Arava
TTITLE8=Smash
TTITLE9=Continuo
EXTD=YEAR: 2006
EXTT0=
EXTT1=
EXTT2=
EXTT3=
EXTT4=
EXTT5=
EXTT6=
EXTT7=
EXTT8=
EXTT9=
PLAYORDER=
